HIERARCHY
ROOT Hips
{
	OFFSET 61.455898 -7.052236 95.540703
	CHANNELS 6 Xposition Yposition Zposition Xrotation Yrotation Zrotation
	JOINT spine
	{
		OFFSET 0.000000 -0.458068 7.965683
		CHANNELS 3 Xrotation Yrotation Zrotation
		JOINT spine1
		{
			OFFSET 0.000000 -0.000002 10.243103
			CHANNELS 3 Xrotation Yrotation Zrotation
			JOINT spine2
			{
				OFFSET 0.000000 -0.000001 9.814751
				CHANNELS 3 Xrotation Yrotation Zrotation
				JOINT Neck
				{
					OFFSET 0.000000 -1.201384 25.198608
					CHANNELS 3 Xrotation Yrotation Zrotation
					JOINT Head
					{
						OFFSET 0.000000 -0.000002 7.613144
						CHANNELS 3 Xrotation Yrotation Zrotation
						End Site
						{
							OFFSET 0.000000 6.077328 18.428101
						}
					}
				}
				JOINT RightShoulder
				{
					OFFSET -4.132702 0.575449 10.599197
					CHANNELS 3 Xrotation Yrotation Zrotation
					JOINT RightArm
					{
						OFFSET 0.000000 -0.000002 13.901794
						CHANNELS 3 Xrotation Yrotation Zrotation
						JOINT RightArmRoll
						{
							OFFSET 0.000000 -0.000001 7.017883
							CHANNELS 3 Xrotation Yrotation Zrotation
							JOINT RightForeArm
							{
								OFFSET 0.000000 -0.000003 20.440598
								CHANNELS 3 Xrotation Yrotation Zrotation
								JOINT RightForeArmRoll
								{
									OFFSET 0.000000 -0.000001 7.875153
									CHANNELS 3 Xrotation Yrotation Zrotation
									JOINT RightHand
									{
										OFFSET 0.000000 -0.000002 15.803696
										CHANNELS 3 Xrotation Yrotation Zrotation
										End Site
										{
											OFFSET 0.000000 0.000000 0.100006
										}
									}
								}
							}
						}
					}
				}
				JOINT LeftShoulder
				{
					OFFSET 4.132702 0.575449 10.599197
					CHANNELS 3 Xrotation Yrotation Zrotation
					JOINT LeftArm
					{
						OFFSET 0.000000 -0.000002 13.901794
						CHANNELS 3 Xrotation Yrotation Zrotation
						JOINT LeftArmRoll
						{
							OFFSET 0.000000 -0.000001 7.017883
							CHANNELS 3 Xrotation Yrotation Zrotation
							JOINT LeftForeArm
							{
								OFFSET 0.000000 -0.000003 20.440598
								CHANNELS 3 Xrotation Yrotation Zrotation
								JOINT LeftForeArmRoll
								{
									OFFSET 0.000000 -0.000001 7.875153
									CHANNELS 3 Xrotation Yrotation Zrotation
									JOINT LeftHand
									{
										OFFSET 0.000000 -0.000002 15.803696
										CHANNELS 3 Xrotation Yrotation Zrotation
										End Site
										{
											OFFSET 0.000000 0.000000 0.100006
										}
									}
								}
							}
						}
					}
				}
			}
		}
	}
	JOINT RightUpLeg
	{
		OFFSET -7.060482 1.086091 -1.294701
		CHANNELS 3 Xrotation Yrotation Zrotation
		JOINT RightUpLegRoll
		{
			OFFSET 0.000000 -0.000003 18.530800
			CHANNELS 3 Xrotation Yrotation Zrotation
			JOINT RightLeg
			{
				OFFSET 0.000000 0.000004 -22.947601
				CHANNELS 3 Xrotation Yrotation Zrotation
				JOINT RightLegRoll
				{
					OFFSET 0.000000 -0.000004 23.022598
					CHANNELS 3 Xrotation Yrotation Zrotation
					JOINT RightFoot
					{
						OFFSET 0.000000 -0.000003 19.162498
						CHANNELS 3 Xrotation Yrotation Zrotation
						JOINT RightToeBase
						{
							OFFSET 0.000000 -0.000003 16.018799
							CHANNELS 3 Xrotation Yrotation Zrotation
							End Site
							{
								OFFSET 0.006790 0.894205 7.757828
							}
						}
					}
				}
			}
		}
	}
	JOINT LeftUpLeg
	{
		OFFSET 7.060482 1.086091 -1.294701
		CHANNELS 3 Xrotation Yrotation Zrotation
		JOINT LeftUpLegRoll
		{
			OFFSET 0.000000 -0.000003 18.530899
			CHANNELS 3 Xrotation Yrotation Zrotation
			JOINT LeftLeg
			{
				OFFSET 0.000000 -0.000003 22.947495
				CHANNELS 3 Xrotation Yrotation Zrotation
				JOINT LeftLegRoll
				{
					OFFSET 0.000000 -0.000004 23.235504
					CHANNELS 3 Xrotation Yrotation Zrotation
					JOINT LeftFoot
					{
						OFFSET 0.000000 -0.000003 18.949600
						CHANNELS 3 Xrotation Yrotation Zrotation
						JOINT LeftToeBase
						{
							OFFSET 0.000000 -0.000002 16.018799
							CHANNELS 3 Xrotation Yrotation Zrotation
							End Site
							{
								OFFSET -0.030426 0.894205 7.757828
							}
						}
					}
				}
			}
		}
	}
}
MOTION
Frames: 8
Frame Time: 0.041667
54.484901 -7.125360 96.508492 -4.572050 1.191019 -3.535774 -0.078776 0.120678 -0.719954 3.846942 0.237242 -1.422543 5.491799 0.219969 -1.425358 5.009560 0.656645 -0.774219 23.967684 3.521466 -2.012463 -20.709222 -66.492923 -24.387745 -53.702721 -102.762307 -98.620603 0.000001 0.000001 0.000001 98.534802 4.479054 -14.738394 0.000007 0.000011 -2.999999 -4.999956 -8.000176 0.000062 5.039601 60.446771 -5.626239 -46.850986 117.974128 79.558802 -0.000000 -0.000008 0.000010 85.759514 5.301750 2.966020 0.000016 -0.000005 3.000009 -4.999877 7.999599 -0.000024 -3.879406 -179.780510 -0.537980 -179.999991 0.000005 -1.162999 169.432172 1.116742 -0.659672 -0.000001 -0.000003 0.004612 67.583226 6.982391 1.980862 25.456957 -7.347448 0.000010 2.468788 170.343811 -5.833731 -0.000005 -0.000005 -1.267600 -13.599066 2.599993 0.687512 0.000000 0.000001 -0.236649 69.694806 -6.944324 -1.956228 26.793205 7.309837 -1.924408 
54.435898 -7.141245 96.495598 -4.554168 1.179933 -3.481312 -0.073686 0.119210 -0.718365 3.857102 0.233844 -1.420666 5.501959 0.216610 -1.423434 4.945505 0.550984 -0.745196 23.915983 3.630660 -2.004597 -20.809158 -66.501713 -24.500939 -53.917305 -102.742158 -98.859236 -0.000000 0.000001 0.000001 98.546809 4.489625 -14.755654 0.000007 0.000010 -3.000000 -4.999957 -8.000171 0.000059 5.140926 60.394206 -5.751752 -46.961908 118.033606 79.738893 -0.000002 -0.000007 0.000010 85.773577 5.312053 2.962947 0.000015 -0.000003 3.000010 -4.999879 7.999598 -0.000024 -3.890699 -179.768530 -0.511474 -179.999991 0.000005 -1.162999 169.428607 1.078391 -0.660760 -0.000001 -0.000003 0.006760 67.589769 6.982468 1.981462 25.456957 -7.347447 0.000011 2.373029 170.335137 -5.808505 -0.000005 -0.000004 -1.267180 -13.697200 2.575078 0.690111 -0.000000 0.000002 -0.237714 69.692163 -6.944338 -1.956193 26.813678 7.309142 -1.952875 
54.408100 -7.145679 96.476692 -4.536137 1.169347 -3.427614 -0.068671 0.117772 -0.716742 3.867101 0.230456 -1.418768 5.511958 0.213262 -1.421489 4.881628 0.446228 -0.717076 23.864415 3.738045 -1.996588 -20.910708 -66.510429 -24.615969 -54.132183 -102.722234 -99.099160 -0.000000 0.000001 -0.000001 98.559698 4.500674 -14.773984 0.000008 0.000009 -2.999998 -4.999956 -8.000171 0.000060 5.241728 60.341163 -5.876656 -47.070706 118.092413 79.916444 -0.000000 -0.000009 0.000011 85.787948 5.321910 2.960345 0.000015 -0.000006 3.000009 -4.999877 7.999600 -0.000023 -3.902230 -179.757561 -0.484931 -179.999991 0.000005 -1.162001 169.424536 1.040038 -0.661830 -0.000001 -0.000003 0.008967 67.596388 6.982515 1.982153 25.456953 -7.347450 0.000011 2.277425 170.325493 -5.783417 -0.000005 -0.000004 -1.266730 -13.795328 2.549914 0.692567 -0.000001 0.000001 -0.238763 69.689936 -6.944331 -1.956134 26.834744 7.308406 -1.982218 
54.387199 -7.149742 96.481201 -4.518007 1.159117 -3.374435 -0.063710 0.116355 -0.715093 3.877001 0.227075 -1.416848 5.521857 0.209920 -1.419523 4.817865 0.342087 -0.689658 23.813074 3.844133 -1.988419 -21.013422 -66.519117 -24.732359 -54.347983 -102.702720 -99.340723 -0.000000 0.000001 -0.000000 98.573290 4.512098 -14.792369 0.000008 0.000011 -3.000000 -4.999955 -8.000171 0.000065 5.342069 60.287969 -6.001046 -47.176810 118.151563 80.090621 -0.000002 -0.000009 0.000009 85.802640 5.331329 2.958009 0.000014 -0.000003 3.000010 -4.999877 7.999595 -0.000023 -3.913934 -179.746591 -0.458410 -179.999991 0.000005 -1.162002 169.420069 1.001685 -0.663908 -0.000001 -0.000003 0.011216 67.603034 6.982562 1.982839 25.456955 -7.347448 0.000011 2.181921 170.316900 -5.758355 -0.000005 -0.000005 -1.266280 -13.893354 2.524570 0.694888 0.000000 0.000001 -0.239801 69.687717 -6.944359 -1.956177 26.856208 7.307643 -2.012174 
54.359406 -7.117707 96.477798 -4.499817 1.149108 -3.321562 -0.058777 0.114949 -0.713429 3.886840 0.223698 -1.414919 5.531696 0.206582 -1.417547 4.754180 0.238273 -0.662739 23.761885 3.949494 -1.980088 -21.116848 -66.527764 -24.849558 -54.563653 -102.683507 -99.582642 -0.000000 0.000000 0.000002 98.587401 4.523620 -14.812814 0.000007 0.000010 -2.999999 -4.999955 -8.000173 0.000066 5.442016 60.234482 -6.124962 -47.281745 118.210453 80.263397 -0.000002 -0.000008 0.000010 85.817413 5.340624 2.955756 0.000015 -0.000006 3.000008 -4.999879 7.999593 -0.000026 -3.925739 -179.735608 -0.431904 -179.999991 0.000005 -1.162001 169.415397 0.963332 -0.664993 -0.000001 -0.000003 0.013488 67.609666 6.982609 1.983628 25.456959 -7.347450 0.000011 2.086474 170.306314 -5.733411 -0.000005 -0.000005 -1.265830 -13.991377 2.499130 0.697103 -0.000001 0.000001 -0.240832 69.685804 -6.944325 -1.956193 26.877983 7.306847 -2.042480 
54.329395 -7.126357 96.477394 -4.481606 1.139177 -3.268768 -0.053856 0.113547 -0.711763 3.896659 0.220323 -1.412986 5.541514 0.203247 -1.415569 4.690521 0.134498 -0.636116 23.710667 4.054656 -1.971565 -21.220412 -66.536219 -24.966915 -54.780060 -102.664341 -99.825407 -0.000001 0.000000 -0.000000 98.601519 4.535353 -14.831254 0.000008 0.000009 -3.000001 -4.999956 -8.000176 0.000064 5.541585 60.180838 -6.248460 -47.385998 118.269274 80.435709 -0.000000 -0.000008 0.000010 85.832269 5.349807 2.953600 0.000015 -0.000004 3.000010 -4.999877 7.999599 -0.000025 -3.937561 -179.724639 -0.405404 -179.999991 0.000005 -1.162001 169.410507 0.924000 -0.667261 -0.000001 -0.000003 0.015766 67.616209 6.982719 1.984236 25.456957 -7.347449 0.000010 1.991025 170.296751 -5.708407 -0.000005 -0.000005 -1.265379 -14.089299 2.473659 0.699217 0.000001 0.000001 -0.241862 69.683782 -6.944326 -1.956217 26.899846 7.306019 -2.072888 
54.294697 -7.149222 96.474991 -4.463419 1.129186 -3.215802 -0.048916 0.112139 -0.710103 3.906508 0.216946 -1.411064 5.551363 0.199911 -1.413599 4.626850 0.030470 -0.609592 23.659521 4.160162 -1.962848 -21.323748 -66.544641 -25.084037 -54.997441 -102.645428 -100.068938 -0.000000 0.000001 -0.000002 98.615426 4.546788 -14.850670 0.000008 0.000010 -2.999996 -4.999955 -8.000172 0.000065 5.640852 60.127125 -6.371617 -47.488338 118.328765 80.606225 -0.000001 -0.000008 0.000011 85.847029 5.359104 2.951452 0.000017 -0.000008 3.000008 -4.999876 7.999593 -0.000022 -3.949335 -179.713670 -0.378903 -179.999991 0.000005 -1.162001 169.405822 0.885651 -0.668357 -0.000001 -0.000003 0.018033 67.622841 6.982763 1.984924 25.456962 -7.347450 0.000011 1.895542 170.287216 -5.683377 -0.000005 -0.000004 -1.264919 -14.187319 2.448236 0.701265 -0.000001 0.000001 -0.242895 69.681679 -6.944358 -1.956155 26.921515 7.305190 -2.103101 
54.268097 -7.147897 96.474197 -4.445288 1.119004 -3.162453 -0.043941 0.110717 -0.708460 3.916437 0.213565 -1.409140 5.561293 0.196571 -1.411629 4.563123 -0.074103 -0.582972 23.608382 4.266561 -1.953914 -21.426295 -66.552899 -25.200287 -55.215499 -102.626577 -100.312714 0.000001 -0.000001 0.000004 98.628990 4.558069 -14.870058 0.000007 0.000006 -3.000002 -4.999955 -8.000171 0.000063 5.739880 60.073337 -6.494502 -47.590613 118.388489 80.777219 -0.000000 -0.000007 0.000008 85.861659 5.368629 2.949005 0.000015 -0.000005 3.000010 -4.999878 7.999594 -0.000022 -3.960991 -179.702714 -0.352391 -179.999991 0.000005 -1.162001 169.401423 0.847302 -0.670462 -0.000001 -0.000003 0.020269 67.629487 6.982843 1.985618 25.456959 -7.347448 0.000010 1.799965 170.278692 -5.658229 -0.000005 -0.000004 -1.264480 -14.285340 2.422946 0.703261 -0.000000 0.000002 -0.243936 69.679548 -6.944318 -1.956182 26.942875 7.304338 -2.132878 
